<svg width="32" height="21" viewBox="0 0 32 21" fill="none" xmlns="http://www.w3.org/2000/svg">
<path d="M2.3125 20.5332C1.91406 20.5332 1.59179 20.4102 1.3457 20.1641C1.09961 19.918 0.976559 19.5957 0.976559 19.1973V14.2842C0.976559 13.8857 1.09961 13.5664 1.3457 13.3262C1.59179 13.0801 1.91406 12.957 2.3125 12.957H4.77343C5.17187 12.957 5.49414 13.0801 5.74023 13.3262C5.98632 13.5664 6.10937 13.8857 6.10937 14.2842V19.1973C6.10937 19.5957 5.98632 19.918 5.74023 20.1641C5.49414 20.4102 5.17187 20.5332 4.77343 20.5332H2.3125ZM10.8643 20.5332C10.4658 20.5332 10.1436 20.4102 9.89746 20.1641C9.65136 19.918 9.52832 19.5957 9.52832 19.1973V10.7686C9.52832 10.3701 9.65136 10.0479 9.89746 9.80176C10.1436 9.55566 10.4658 9.43262 10.8643 9.43262H13.3252C13.7295 9.43262 14.0518 9.55566 14.292 9.80176C14.5381 10.0479 14.6611 10.3701 14.6611 10.7686V19.1973C14.6611 19.5957 14.5381 19.918 14.292 20.1641C14.0518 20.4102 13.7295 20.5332 13.3252 20.5332H10.8643ZM19.416 20.5332C19.0117 20.5332 18.6865 20.4102 18.4404 20.1641C18.2002 19.918 18.0801 19.5957 18.0801 19.1973V6.6377C18.0801 6.23926 18.2002 5.91699 18.4404 5.6709C18.6865 5.4248 19.0117 5.30176 19.416 5.30176H21.8769C22.2754 5.30176 22.5977 5.4248 22.8437 5.6709C23.0898 5.91699 23.2129 6.23926 23.2129 6.6377V19.1973C23.2129 19.5957 23.0898 19.918 22.8437 20.1641C22.5977 20.4102 22.2754 20.5332 21.8769 20.5332H19.416ZM27.9678 20.5332C27.5693 20.5332 27.2471 20.4102 27.001 20.1641C26.7549 19.918 26.6318 19.5957 26.6318 19.1973V2.11133C26.6318 1.71289 26.7549 1.39062 27.001 1.14453C27.2471 0.898438 27.5693 0.775391 27.9678 0.775391H30.4375C30.8359 0.775391 31.1553 0.898438 31.3955 1.14453C31.6416 1.39062 31.7646 1.71289 31.7646 2.11133V19.1973C31.7646 19.5957 31.6416 19.918 31.3955 20.1641C31.1553 20.4102 30.8359 20.5332 30.4375 20.5332H27.9678Z" fill="#F8FF15"/>
</svg>
