<svg width="28" height="25" viewBox="0 0 28 25" fill="none" xmlns="http://www.w3.org/2000/svg">
<path d="M10.79 22.7529H16.96V16.0908C16.96 15.8389 16.8838 15.6367 16.7314 15.4844C16.585 15.332 16.3857 15.2559 16.1338 15.2559H11.625C11.373 15.2559 11.1709 15.332 11.0186 15.4844C10.8662 15.6367 10.79 15.8389 10.79 16.0908V22.7529ZM3.81152 22.1641V13.0586L13.1631 5.22754C13.3857 5.03418 13.6201 4.9375 13.8662 4.9375C14.1123 4.93164 14.3496 5.02832 14.5781 5.22754L23.9385 13.0762V22.1641C23.9385 22.9434 23.71 23.5527 23.2529 23.9922C22.7959 24.4316 22.1689 24.6514 21.3721 24.6514H6.36914C5.57226 24.6514 4.94531 24.4316 4.48828 23.9922C4.03711 23.5527 3.81152 22.9434 3.81152 22.1641ZM1.32421 12.7949C1.00781 12.7949 0.758785 12.7012 0.577145 12.5137C0.395504 12.3203 0.304684 12.0977 0.304684 11.8457C0.304684 11.7051 0.33691 11.5674 0.401363 11.4326C0.465816 11.292 0.565426 11.166 0.700191 11.0547L12.4072 1.22852C12.8643 0.841797 13.3535 0.648438 13.875 0.648438C14.3965 0.648438 14.8857 0.841797 15.3428 1.22852L27.0498 11.0547C27.1846 11.166 27.2842 11.292 27.3486 11.4326C27.4131 11.5674 27.4453 11.7051 27.4453 11.8457C27.4453 12.0977 27.3545 12.3203 27.1728 12.5137C26.9971 12.7012 26.748 12.7949 26.4258 12.7949C26.2734 12.7949 26.1299 12.7598 25.9951 12.6895C25.8662 12.6191 25.7402 12.5342 25.6172 12.4346L14.3584 2.98633C14.2061 2.85742 14.0449 2.79297 13.875 2.79297C13.7051 2.79297 13.5439 2.85742 13.3916 2.98633L2.13281 12.4346C2.00976 12.5342 1.88086 12.6191 1.74609 12.6895C1.61718 12.7598 1.47656 12.7949 1.32421 12.7949ZM21.1963 6.72168V3.98828C21.1963 3.75977 21.2666 3.57812 21.4072 3.44336C21.5537 3.30273 21.7412 3.23242 21.9697 3.23242H23.3584C23.5928 3.23242 23.7803 3.30273 23.9209 3.44336C24.0615 3.57812 24.1318 3.75977 24.1318 3.98828V9.18262L21.1963 6.72168Z" fill="#F8FF15"/>
</svg>
