<svg width="44" height="21" viewBox="0 0 44 21" fill="none" xmlns="http://www.w3.org/2000/svg">
<path d="M14.4619 20.8408C13.5947 20.8408 12.9795 20.7119 12.6162 20.4541C12.2588 20.1963 12.0801 19.8125 12.0801 19.3027C12.0801 18.7168 12.2236 18.1045 12.5107 17.4658C12.7978 16.833 13.2139 16.2148 13.7588 15.6113C14.3037 15.002 14.9658 14.457 15.7451 13.9766C16.5244 13.4902 17.4062 13.1035 18.3906 12.8164C19.3809 12.5234 20.4619 12.377 21.6338 12.377C22.8057 12.377 23.8867 12.5234 24.8769 12.8164C25.8672 13.1035 26.749 13.4902 27.5225 13.9766C28.3018 14.457 28.9639 15.002 29.5088 15.6113C30.0537 16.2148 30.4668 16.833 30.748 17.4658C31.0352 18.1045 31.1787 18.7168 31.1787 19.3027C31.1787 19.8125 31 20.1963 30.6426 20.4541C30.2852 20.7119 29.6758 20.8408 28.8144 20.8408H14.4619ZM21.6426 10.3643C20.8164 10.3643 20.0576 10.1416 19.3662 9.69629C18.6807 9.25098 18.1299 8.65039 17.7139 7.89453C17.3037 7.13867 17.0986 6.29492 17.0986 5.36328C17.0986 4.67773 17.2187 4.03906 17.459 3.44727C17.6992 2.85547 18.0303 2.33398 18.4521 1.88281C18.874 1.43164 19.3574 1.08301 19.9023 0.836914C20.4473 0.584961 21.0273 0.458984 21.6426 0.458984C22.2578 0.458984 22.8379 0.582031 23.3828 0.828125C23.9336 1.07422 24.417 1.41992 24.833 1.86523C25.2549 2.31055 25.5859 2.8291 25.8262 3.4209C26.0664 4.0127 26.1865 4.6543 26.1865 5.3457C26.1865 6.2832 25.9785 7.13281 25.5625 7.89453C25.1465 8.65039 24.5957 9.25098 23.9102 9.69629C23.2246 10.1416 22.4687 10.3643 21.6426 10.3643ZM2.20117 20.8496C1.48046 20.8496 0.96777 20.7031 0.663082 20.4102C0.358395 20.123 0.206051 19.707 0.206051 19.1621C0.206051 18.3887 0.39941 17.6035 0.786129 16.8066C1.17285 16.0039 1.72949 15.2656 2.45605 14.5918C3.18847 13.918 4.06445 13.376 5.08398 12.9658C6.10351 12.5498 7.24902 12.3418 8.5205 12.3418C9.57519 12.3418 10.5186 12.4854 11.3506 12.7725C12.1826 13.0537 12.9121 13.4082 13.5391 13.8359C12.8945 14.3398 12.3437 14.9141 11.8867 15.5586C11.4297 16.2031 11.0781 16.8564 10.832 17.5186C10.5918 18.1807 10.4775 18.8018 10.4893 19.3818C10.501 19.9678 10.6562 20.457 10.9551 20.8496H2.20117ZM8.5205 10.6191C7.80566 10.6191 7.14941 10.4258 6.55175 10.0391C5.9541 9.65234 5.47363 9.13086 5.11035 8.47461C4.75293 7.8125 4.57421 7.07422 4.57421 6.25977C4.56836 5.46875 4.74707 4.75098 5.11035 4.10645C5.47363 3.45605 5.9541 2.94336 6.55175 2.56836C7.15527 2.1875 7.81152 1.99707 8.5205 1.99707C9.23535 1.99707 9.8916 2.18457 10.4893 2.55957C11.0928 2.92871 11.5762 3.43555 11.9394 4.08008C12.3027 4.72461 12.4844 5.44531 12.4844 6.24219C12.4844 7.06836 12.3027 7.8125 11.9394 8.47461C11.582 9.13086 11.1016 9.65234 10.498 10.0391C9.90039 10.4258 9.24121 10.6191 8.5205 10.6191ZM41.0576 20.8496H32.2949C32.5996 20.457 32.7549 19.9678 32.7607 19.3818C32.7725 18.8018 32.6582 18.1807 32.418 17.5186C32.1777 16.8564 31.8262 16.2031 31.3633 15.5586C30.9004 14.9141 30.3525 14.3398 29.7197 13.8359C30.3467 13.4082 31.0732 13.0537 31.8994 12.7725C32.7314 12.4854 33.6748 12.3418 34.7295 12.3418C35.9951 12.3418 37.1377 12.5498 38.1572 12.9658C39.1826 13.376 40.0586 13.918 40.7852 14.5918C41.5176 15.2656 42.0771 16.0039 42.4639 16.8066C42.8506 17.6035 43.0439 18.3887 43.0439 19.1621C43.0439 19.707 42.8916 20.123 42.5869 20.4102C42.2822 20.7031 41.7725 20.8496 41.0576 20.8496ZM34.7207 10.6191C34.0059 10.6191 33.3467 10.4258 32.7432 10.0391C32.1455 9.65234 31.665 9.13086 31.3018 8.47461C30.9443 7.8125 30.7656 7.06836 30.7656 6.24219C30.7656 5.44531 30.9473 4.72461 31.3105 4.08008C31.6738 3.43555 32.1543 2.92871 32.7519 2.55957C33.3555 2.18457 34.0117 1.99707 34.7207 1.99707C35.4355 1.99707 36.0918 2.1875 36.6894 2.56836C37.2871 2.94336 37.7676 3.45605 38.1309 4.10645C38.4941 4.75098 38.6758 5.46875 38.6758 6.25977C38.6758 7.07422 38.4941 7.8125 38.1309 8.47461C37.7734 9.13086 37.2959 9.65234 36.6982 10.0391C36.1006 10.4258 35.4414 10.6191 34.7207 10.6191Z" fill="#F8FF15"/>
</svg>
